<?xml version="1.0" encoding="UTF-8"?>
<svg width="17px" height="15px" viewBox="0 0 17 15" version="1.1" xmlns="http://www.w3.org/2000/svg" xmlns:xlink="http://www.w3.org/1999/xlink">
    <!-- Generator: Sketch 63.1 (92452) - https://sketch.com -->
    <title>Group 7</title>
    <desc>Created with Sketch.</desc>
    <g id="Page-1" stroke="none" stroke-width="1" fill="none" fill-rule="evenodd">
        <g id="D-Home-Detail" transform="translate(-1164.000000, -616.000000)" fill="#FFFFFF">
            <g id="Group-7" transform="translate(1164.000000, 616.000000)">
                <ellipse id="Oval" cx="8.0952381" cy="8.02777778" rx="2.59047619" ry="2.56888889"></ellipse>
                <path d="M5.66666667,8.8817842e-16 L4.1852381,1.60555556 L1.61904762,1.60555556 C0.728571429,1.60555556 -1.50990331e-13,2.32805556 -1.50990331e-13,3.21111111 L-1.50990331e-13,12.8444444 C-1.50990331e-13,13.7275 0.728571429,14.45 1.61904762,14.45 L14.5714286,14.45 C15.4619048,14.45 16.1904762,13.7275 16.1904762,12.8444444 L16.1904762,3.21111111 C16.1904762,2.32805556 15.4619048,1.60555556 14.5714286,1.60555556 L12.0052381,1.60555556 L10.5238095,8.8817842e-16 L5.66666667,8.8817842e-16 L5.66666667,8.8817842e-16 Z M8.0952381,12.0416667 C5.86095238,12.0416667 4.04761905,10.2434444 4.04761905,8.02777778 C4.04761905,5.81211111 5.86095238,4.01388889 8.0952381,4.01388889 C10.3295238,4.01388889 12.1428571,5.81211111 12.1428571,8.02777778 C12.1428571,10.2434444 10.3295238,12.0416667 8.0952381,12.0416667 L8.0952381,12.0416667 Z" id="Shape"></path>
            </g>
        </g>
    </g>
</svg>