<?xml version="1.0" encoding="UTF-8"?>
<svg width="20px" height="20px" viewBox="0 0 20 20" version="1.1" xmlns="http://www.w3.org/2000/svg" xmlns:xlink="http://www.w3.org/1999/xlink">
    <!-- Generator: Sketch 63.1 (92452) - https://sketch.com -->
    <title>Shape</title>
    <desc>Created with Sketch.</desc>
    <g id="Page-1" stroke="none" stroke-width="1" fill="none" fill-rule="evenodd">
        <g id="D-Available-Homes" transform="translate(-363.000000, -1222.000000)" fill="#EE2E24">
            <path d="M382.707427,1231.29482 L373.705176,1222.29257 C373.315079,1221.90248 372.684921,1221.90248 372.294824,1222.29257 L363.292573,1231.29482 C362.902476,1231.68492 362.902476,1232.31508 363.292573,1232.70518 L372.294824,1241.70743 C372.684921,1242.09752 373.315079,1242.09752 373.705176,1241.70743 L382.707427,1232.70518 C383.097524,1232.32508 383.097524,1231.69492 382.707427,1231.29482 L382.707427,1231.29482 Z M374.995499,1234.50563 L374.995499,1232.005 L370.994499,1232.005 L370.994499,1235.00575 L368.993998,1235.00575 L368.993998,1231.00475 C368.993998,1230.45461 369.444111,1230.0045 369.994249,1230.0045 L374.995499,1230.0045 L374.995499,1227.50388 L378.496374,1231.00475 L374.995499,1234.50563 L374.995499,1234.50563 Z" id="Shape"></path>
        </g>
    </g>
</svg>